<svg height='200' width='200'  fill="#000000" xmlns="http://www.w3.org/2000/svg" xmlns:xlink="http://www.w3.org/1999/xlink" version="1.1" x="0px" y="0px" viewBox="0 0 100 100" enable-background="new 0 0 100 100" xml:space="preserve"><path d="M25.964,30.284c-0.27,0.031-0.518,0.162-0.696,0.367l-2.433,2.802c-0.094,0.108-0.166,0.235-0.211,0.371  c-0.01,0.028-0.966,2.929-2.137,6.917c-1.298,4.418-3.035,10.778-3.942,15.987c-1.112,6.381-0.51,11.002,1.789,13.734  c1.443,1.719,3.466,2.588,6.012,2.588c4.735,0,7.322-7.043,9.211-12.188c0.518-1.408,1.16-3.154,1.482-3.549  c0.256-0.148,0.57-0.265,0.927-0.338c1.249,1.008,2.793,1.558,4.405,1.558c1.651,0,3.229-0.575,4.493-1.627h12.719  c1.265,1.053,2.842,1.627,4.494,1.627c1.569,0,3.088-0.526,4.323-1.494c0.358,0.08,0.713,0.192,1.056,0.337  c0.332,0.43,0.91,2.148,1.379,3.545c1.621,4.83,4.072,12.129,9.224,12.129c2.291,0,4.137-0.762,5.485-2.266  c2.354-2.626,3.115-7.438,2.324-14.715c-0.558-5.098-2.453-11.597-3.947-16.152c-1.168-3.559-2.151-6.119-2.162-6.145  c-0.045-0.118-0.108-0.227-0.192-0.321l-2.431-2.803c-0.18-0.206-0.43-0.337-0.7-0.367c-0.149-0.017-3.731-0.411-5.108-0.411  c-1.272,0-2.595,0.65-3.173,0.974h-6.098c-0.011,0-0.019-0.003-0.027-0.003h-7.219h-14.47c-0.01,0-0.019,0.002-0.028,0.003h-6.047  c-0.567-0.337-1.821-0.974-3.188-0.974C29.57,29.873,26.11,30.268,25.964,30.284z M36.485,35.638c0.6,0,1.085-0.485,1.085-1.084  v-1.536h1.686v10.199c0,0.599,0.485,1.084,1.085,1.084h7.235h14.451c0.6,0,1.084-0.486,1.084-1.084V33.018h1.582v1.536  c0,0.599,0.486,1.084,1.084,1.084c0.6,0,1.086-0.485,1.086-1.084v-1.536h1.584c0.205,0,0.406-0.058,0.58-0.167  c0.332-0.209,1.465-0.807,2.297-0.807c1,0,3.461,0.249,4.451,0.353l2.021,2.333c0.238,0.63,1.08,2.889,2.061,5.867  c1.461,4.456,3.314,10.799,3.852,15.711c0.711,6.534,0.111,10.918-1.781,13.028c-0.934,1.04-2.199,1.545-3.871,1.545  c-3.59,0-5.742-6.407-7.164-10.647c-1.041-3.103-1.502-4.377-2.459-4.797c-0.699-0.31-1.436-0.521-2.188-0.629  c-0.053-0.008-0.104-0.012-0.152-0.012c-0.271,0-0.531,0.102-0.732,0.284c-0.902,0.828-2.068,1.284-3.281,1.284  c-1.242,0-2.428-0.475-3.338-1.331c-0.201-0.191-0.469-0.298-0.746-0.298H44.451c-0.277,0-0.543,0.104-0.744,0.298  c-0.909,0.856-2.094,1.331-3.337,1.331c-1.238,0-2.42-0.473-3.328-1.325c-0.23-0.216-0.542-0.317-0.857-0.288  c-0.909,0.098-1.7,0.352-2.353,0.757c-0.774,0.485-1.269,1.765-2.314,4.607c-1.479,4.026-3.954,10.766-7.174,10.766  c-1.875,0-3.338-0.608-4.351-1.813c-1.841-2.188-2.294-6.326-1.312-11.967c0.891-5.109,2.605-11.386,3.887-15.75  c0.982-3.348,1.812-5.918,2.048-6.642l2.012-2.316c0.966-0.104,3.353-0.351,4.45-0.351c0.911,0,1.941,0.566,2.258,0.782  c0.181,0.125,0.396,0.192,0.617,0.192H35.4v1.536C35.4,35.153,35.885,35.638,36.485,35.638z M41.426,33.018v-0.003h11.399  l-0.001,0.003l-5.842,9.113h-5.556V33.018z"></path><path d="M40.342,54.529c2.269,0,4.115-1.846,4.115-4.115c0-2.269-1.846-4.114-4.115-4.114c-2.27,0-4.115,1.846-4.115,4.114  C36.227,52.684,38.073,54.529,40.342,54.529z M40.342,48.47c1.072,0,1.944,0.873,1.944,1.944c0,1.072-0.872,1.943-1.944,1.943  c-1.073,0-1.945-0.873-1.945-1.943C38.397,49.342,39.269,48.47,40.342,48.47z"></path><path d="M62.025,54.529c2.27,0,4.115-1.846,4.115-4.115c0-2.269-1.848-4.114-4.115-4.114c-2.271,0-4.115,1.846-4.115,4.114  C57.91,52.684,59.756,54.529,62.025,54.529z M62.025,48.47c1.072,0,1.945,0.873,1.945,1.944c0,1.072-0.873,1.943-1.945,1.943  s-1.943-0.873-1.943-1.943C60.082,49.342,60.953,48.47,62.025,48.47z"></path><path d="M31.976,41.245v-3.334c0-0.719-0.583-1.302-1.302-1.302c-0.719,0-1.302,0.583-1.302,1.302v3.334h-3.334  c-0.719,0-1.302,0.583-1.302,1.302c0,0.72,0.583,1.302,1.302,1.302h3.334v3.333c0,0.719,0.583,1.302,1.302,1.302  c0.719,0,1.302-0.583,1.302-1.302v-3.333h3.333c0.719,0,1.302-0.583,1.302-1.302c0-0.719-0.583-1.302-1.302-1.302H31.976z"></path><circle cx="71.611" cy="37.839" r="1.868"></circle><circle cx="71.611" cy="46.089" r="1.868"></circle><circle cx="67.484" cy="41.962" r="1.869"></circle><circle cx="75.736" cy="41.962" r="1.869"></circle><path d="M49.054,52.549h3.799c0.6,0,1.086-0.484,1.086-1.085c0-0.6-0.486-1.085-1.086-1.085h-3.799c-0.6,0-1.085,0.486-1.085,1.085  S48.455,52.549,49.054,52.549z"></path></svg>
