<svg height='200' width='200'  fill="#000000" xmlns="http://www.w3.org/2000/svg" xmlns:xlink="http://www.w3.org/1999/xlink" version="1.1" x="0px" y="0px" viewBox="0 0 100 100" style="enable-background:new 0 0 100 100;" xml:space="preserve"><g><circle cx="76.9" cy="55.3" r="2.5"></circle><circle cx="22.8" cy="55.3" r="2.5"></circle><path d="M21.6,50.1V49h1.2c0.8,0,1.5-0.7,1.5-1.5S23.6,46,22.8,46h-1.2v-1.2c0-0.8-0.7-1.5-1.5-1.5s-1.5,0.7-1.5,1.5V46h-1.2   c-0.8,0-1.5,0.7-1.5,1.5s0.7,1.5,1.5,1.5h1.2v1.2c0,0.8,0.7,1.5,1.5,1.5S21.6,51,21.6,50.1z"></path><circle cx="76.9" cy="47.5" r="1.3"></circle><circle cx="82.3" cy="47.5" r="1.3"></circle><circle cx="79.6" cy="50.2" r="1.3"></circle><circle cx="79.6" cy="44.8" r="1.3"></circle><path d="M73.3,32.1H26.7c-9.9,0-17.9,8-17.9,17.9s8,17.9,17.9,17.9h46.6c9.9,0,17.9-8,17.9-17.9S83.2,32.1,73.3,32.1z M73.3,64.9   H26.7c-8.2,0-14.9-6.7-14.9-14.9s6.7-14.9,14.9-14.9h46.6c8.2,0,14.9,6.7,14.9,14.9S81.6,64.9,73.3,64.9z"></path><path d="M28.2,63.1h42.7V36.9H28.2V63.1z M31.2,39.9h36.7v20.1H31.2V39.9z"></path></g></svg>
